/* XPM */
static char *_435_08ffe8117e815ba1cbadb4167c757f419056ad65e1b451dab638cf0e76ef82a9[] = {
/* columns rows colors chars-per-pixel */
"113 113 17 1 ",
"  c #2B1C1D",
". c #2B230F",
"X c #3A2912",
"o c #101820",
"O c #462B11",
"+ c #442E19",
"@ c #56381D",
"# c #58381C",
"$ c #49342C",
"% c #63462B",
"& c #744B30",
"* c #073743",
"= c #0B2F5C",
"- c #7E6952",
"; c #0E7994",
": c #004BA8",
"> c None",
/* pixels */
">>>>>>>>>>>>>>>>>>>>>>>>>>>>>>>>>>>>>>>>>>>>>>>>>>>>>>>>>>>>>>>>>>>>>>>>>>>>**>>>>>>>>>>>>>>>>>>>>>>>>>>>>>>>>>>>",
">>>>>>>>>>>>>>>>>>>>>>>>>>>>>>>>>>>>>>>>>>>>>>>>>>>>>>>>>>>>>>>>>>>*>>>>>>>=:*>>>>>>>>>>>>>>>>>>>>>>>>>>>>>>>>>>>",
">>>>>>>>>>>>>>>>>>>>>>>>>>>>>>>>>>>>>>>>>>>>>>>>>>>>>>>>>>>>>>>>>>>***:>***:*>>>>>>>>>>>>>>>>>>>>>>>>>>>>>>>>>>>>",
">>>>>>>>>>>>>>>>>>>>>>>>>>>>>>>>>>>>>>>>>>>>>>>>>>>>>>>>>>>>>>>>>>>*=**:=:*=:**>>>>>>>>>>>>>>>>>>>>>>>>>>>>>>>>>>",
">>>>>>>>>>>>>>>>>>>>>>>>>>>>>>>>>>>>>>>>>>>>>>>>>>>>>>>>>>>>>>>>>>>=:*:=;:******>>>>>>>>>>>>>>>>>>>>>>>>>>>>>>>>>",
">>>>>>>>>>>>>>>>>>>>>>>>>>>>>>>>>>>>>>>>>>>>>>>>>>>>>>>>>>>>>>>>>>>=*:===::*::*>>>>>>>>>>>>>>>>>>>>>>>>>>>>>>>>>>",
">>>>>>>>>>>>>>>>>>>>>>>>>>>>>>>>>>>>>>>>>>>**:>>>:**>>>>>>>>>>>>>>****:==;=::***>>>>>>>>>>>>>>>>>>>>>>>>>>>>>>>>>",
">>>>>>>>>>>>>>>>>>>>>>>>>>>>>>>>>>>>>>>>>**::::**==**>>>>>>>>>&&>>*:::::;;====:*>>>>>>>>>>>>>>>>>>>>>>>>>>>>>>>>>",
">>>>>>>>>>>>>>>>>>>>>>>>>>>>>>>>>>>>>>>>>>**:=;===**>>>>**>>>**X****:=======:*::::>>>>>>>>>>>>>>>>>>>>>>>>>>>>>>>",
">>>>>>>>>>>>>>>>>>>>>>>>>>>>>>>>>>>>>>>>>>*:=;;====*>>>*==***==*X*:=====;;=:::::**o>>>>>>>>>>>>>>>>>>>>>>>>>>>>>>",
">>>>>>>>>>>>>>>>>>>>>>>>>>>>>>>>>>>>>>>>>*:=====;:==*>***====:===*ooo*:;;;:*::*:ooo>>>>>>>>>>>>>>>>>>>>>>>>>>>>>>",
">>>>>>>>>>>>>>>>>>>>>>>>>>>>>>>>>>>>>>>****:==;;=:oo>>*==*=;=====:*o*::*;:***:****o>>>>>>>>>>>>>>>>>>>>>>>>>>>>>>",
">>>>>>>>>>>>>>>>>>>>>>>>>>>>>>>>>>>>>>>*:::::;;:::*o***=;=;;==;==*o*:::*****:::ooo:>>>:**>>>>>>>>>>>>>>>>>>>>>>>>",
">>>>>>>>>>>>>>>>>>>>>>>>>>>>>>>>>>>>>>>****o==**:::*o:*===;;==;**o****::**:**:*o::o:**==**>>>>>>>>>>>>>>>>>>>>>>>",
">>>>>>>>>>>>>>>>>>>>>>>>>>>>>>>>>>>>>>>**oo****o*:o*o:=;=;;;=;;;;oo**:::**::**ooo:=;===**>>>>>>>>>>>>>>>>>>>>>>>>",
">>>>>>>>>>>>>>>>>>>>>>>>>>>>>>>>>>>>>>ooo>o**::oo*ooo=;;;;;;;;;;;o.o***:o**::*o*:o;;====*>>>>>>>>>>>>>>>>>>>>>>>>",
">>>>>>>>>>>>>>>>>>>>>>>>>>>>>>>>>>>>>>>>>>o*o*:oXoo&&==;;;;;;;;;;.@o*oo::o*:oooo=====;:==*>>>>>>>>>>>>>>>>>>>>>>>",
">>>>>>>>>>>>>>>>>>>>>>>>>>>>>>>>>>>>>>>>>>o*oooo*o*.:=;;;;;;;;;;.@;oo:o*o:ooo**o:==;;=:oo>>>>>>>>>>>>>>>>>>>>>>>>",
">>>>>>>>>>>>>>>>>>>>>>>>>>>>>>>>>>>>>>>>>>>o*:o**:..:;;;;;;;;;;;.@;;;=o*o:o**o::::;;:::*o***>>>>>>>>>>>>>>>>>>>>>",
">>>>>>>>>>>>>>>>>>>>>>>>*>>**>>>****>>>>>>>ooo*o**.X===;;;;;;;;.X@X@;;oo**Xo****o==**:::*o:*>>>>>>>>>>>>>>>>>>>>>",
">>>>>>>>>>>>>>>>>>>>>>>>=**==***==*>>*>>>>>>o*..o:.===;;;;;;;;;.X@;XX@=ooXXX**oo****o*:o*o>>>>>>>>>>>>>>>>>>>>>>>",
">>>>>>>>>>>>>>>>>>>>>>**==::==:===***=>>>>>o*o*..:.:=;;=@@;;;;;;X@;;;X@@XX=ooo>o**::oo*ooo>>>>>>>>>>>>>>>>>>>>>>>",
">>>>>>>>>>>>>>>*>>>**>*====:=====::=:::*::******.@.:;;;=;X@;==;;;;===;XX&:**>>>o*o*:o>oo>>>>>>>>>>>>>>>>>>>>>>>>>",
">>>>>>>>>>>>>>>*****=***====:===::==:==::***ooo::.X*;;;:;;X@&;==;;;====XX&::*>>o*oooo>o>>>>>>>>>>>>>>>>>>>>>>>>>>",
">>>>>>>>>>>>>***:==*:==:==;===============::*o*::..X::;;;;;X&;X;;;;==;==XX:**>>>o*:o*>>>>>>>>>>>>>>>>>>>>>>>>>>>>",
">>>>>>>>>>>>>===*:=::==;;=;==;===;;==;=====::****:.X==;;;=XXXX;;===oo=ooXXXoo>>>ooo*o>>>>>>>>>>>>>>>>>>>>>>>>>>>>",
">>>>>>>>>>>>>*===:==:===;;;==;;=;;;=;;==::::*oo*:::X@.;;=X;;;=;;==;;=o:ooXX**>>>XXX>>o>>>>>>>>>>>>>>>>>>>>>>>>>>>",
">>>>>>>>>>>**::=======;==;;=;;;;;;;;;;====:::***:*:X@.;=XX;=;;===;*;*o:*oo=:*X>>***>>**>>>>>>>>>>>>>>>>>>>>>>>>>>",
">>>>>>>>>**::===;;==;=;=;;;=;==;;=;;;;;;;;======****X@;=======;=o:*ooo:***:*XXX**==*>*=o>>>>>>>>>>>>>>>>>>>>>>>>>",
">>>>>>>>>>**::==;;;;;=;;;;;;;;=;;;;;;;===;;==::**:**X@oo;=;;==;;*o*=**o=:*=:**X>:*==*::*o>>>>>>>>>>>>>>>>>>>>>>>>",
">>>>>>>>>>*:=::==;;;=;;;;;;;;;;;;;;;=;====;=:****:**XX@ooo;;;;;o*o=:*:o;:******o:o::*:o***>>>****>>>>>>>>>>>>>>>>",
">>>>>>>>>*:===;===;;;;===;;;;;;;;;;;;;==;=;;==::*:::*X@=;:*:=:::o==*:===::*::*XXo:::o*o*==***==*>>******>>>>>>>>>",
">>>>>>>****:=;;;;=;;;===;;;;;;;;;;;;;==;;;;;=::***::*X@.***::**:o****:==;=::***o*:**oo***====:===*===***>>>>>>>>>",
">>>>>>>*:::::;;;;;;;;;;;;;;;;;;;;;;;;====;=;=::==****XX.*==***=o:*:::::;;====:*o**oooo*==*=;=====:=;*:**>>>>>>>>>",
">>>>>****:=====;;=;;;;;;;;;;;;;;;;;;;;;;=;;;====:**=*.X.:*==*::*o**:=======:*::::oOO**:=;=;;==;===;;==::*>>>>>>>>",
">>>>>>*:===::=;;;;;===;;;;;;;;;;;;;;;;;;;;;;====:==:*.oo:o::*:o*o:=====;;=:::::**o**:::===;;==;;=;;::==*>>>>>>>>>",
">>>>>>*:==:====;;;===;;;;;;;;;;;;;;;;;;;;==;;=====:**oooo:::o*oooooo*:;;;:*::*:ooXX**:=;=;;;=;;;;;=;:::**>>>>>>>>",
">>>>>*:==========;;;;;;;;;;;;;;;;;;;;;;;;;=======::::*oo*:**oooo**o*::*;:***:****oX*:=;;;;;;;;;;;==;::::*>>>>>>>>",
">>>>>***=:=====;;;;=;;;;;;;;;;;;;;;;;;;;;;;=;;;====:*Xoo**oooo*o*o*:::*****:::o*oOO:===;;;;;;;;;;;;:::=:**>>>>>>>",
">>>>*======;;=;;=;==;;;;;;;;;;;;;;;;;;;==;;;=;;;===:*.ooooo:o***o****::**:**::*oOooo:=;;;;;;;;;;;;;;=:=:::*>>>>>>",
">>>>**:====;;====;;==;;;;;;;;;;;;;;;;;;===;;;=======:*o>>>>>:o>>oo**:::**::****O+::o:;;;;;;;;;;;;;;;;==::=:*>>>>>",
">>>*::==:=;;===;=;;;=;;;;;;;;;;;;;;;;;;;==;;;======***o>>>>>>o>>o>o***:o**::*o+++*:====;;;;;;;;;;===;;===**>>>>>>",
">>>*:*=::=:=:=;;;;===;;=;;;;;;;;;;;;;;=;======::=::=:oo>>>*>>>>>>>o*oo::o*:*o*+Xoo====;;;;;;;;;;;;;;;=====**>>>>>",
">>>**::::=::==;=;;;;;;==;=;;;;;;;;;;;;;;;;=====:==:**.X>>>***:>***oo>o*o:o*o*+Xo*:o:=;;=;;;;;;;;;;;;;;==::=:*>>>>",
">>>>*:==:========;;;;;;===;;;;;;;;;;;;;====:::=::=:::*X.>>*=**:=:*=:*o*o:oo*+Xo*::::;;;=;=;;==;;;;===;;==:**>>>>>",
">>>*:==::::===:==;;=;;;==;;=;;;;;;;;=;;=;===::::::::*o.X>>=:*:=;:****oo*>>oo+Xo::::*;;;=;;;;;;==;;;======:::*>>>>",
">>**::::::===::=;;;;;;;;;;;===;;;==;=;;=;=:::=::::**o.XX>>=*:===::*::*oo>>>>>o*:::*===;;;;;;;;;;;;;==;==:::**>>>>",
">>>>***:=====:==;=;;=;;=;;;;=;;;;;===;;===::====:::**oXX.****:==;=::***>@@@>o****:::==;;;=;;;;;;======*;:**oo>>>>",
">>>o:o:==:::======;==;:==;;;;;;;;;;==;;;===:===:::::**o..*:::::;;====:*..XX.ooo*::::*;;;==;;;=;;==;;=;:::***>>>>>",
">>>>>>o*:::======;====:=:::;;;;;;;;;;;;=======::**::ooX****:=======:*::::XX..o*::*:**;;===;=;;===;;;*::*:oo*>>>>>",
">>>>>o*:::======;;;;;::::::=;;;;=;;;;;===::==::**:::*oX.*:=====;;=:::::**oooo*:::***;;;=======;=;:;***:****o>>>>>",
">>>>o****::::===;;==:=:::::=:;;;==;:====;=:::::**:::**oX.ooo*:;;;:*::*:oo>>o****::**:=;=;=;;==;;*:***:::o*oo>>>>>",
">>>>oo**:::*=======::=:::::::==:==:::=::::===::***:::*oX.*o*::*;:***:****o>oo**:::**;==;;;;;;;;;***:**::*o>>>>>>>",
">>>>o>o***:::======:==:=::::=======:::::=::==:::*o*:ooo.*o*:::*****:::o*oo>o>o***:::*:==;:*:=:::==*::*****o>>>>>>",
">>>>>>o*oo::::**:==:====:::=========::::==::::*::oo*o>**o****::**:**::*o>>>>>o*oo:::******:::*::=:**::*o*oo>>>>>>",
">>>>>>oo>o*o*:***:=::==::=:==:===:==:::==::=::**:o>oo>>.oo**:::**::*****oXXX>oo:o**:::*::**:**::::o*:***o>>>>>>>>",
">>>>>>>>>o*o:***::=:::=:==:=:::==::::::===::=:*oooXo>>>>o.o***:o**::*o*ooooXoo**o:::::::::***:::::*:*o**o>>>>>>>>",
">>>>>>>>>oo***oo*:::=:::==:::::=::=::::=:==:=***oX>>>>>>.Xo*oo::o*:***o>>>>o*:::o:::*::**:**::*::**:*oooo>>>>>>>>",
">>>>>>>>>>oooo>oo::::::::=::::::::==:::=::=::*::*o>>>>>>>Xoo.o*o:o*o**o>>>oo**:==o::*o::****:::*:**:o>>>>>>>>>>>>",
">>>>>>>>>>>>>>>oo*o*:***::::=::::::==:==*::*:**::*o>>>>>>XX-.o*o:o*oooo>>>>*:====**:*o:**oo**:*o**::o>>>>>>>>>>>>",
">>>>>>>>>>>>>>>oo*o:***o:*:==::=:::====:**:*:**ooo>>>>>>>oX-.oo*>>o@o>>>>>>.ooo*:*ooo***o:o:***oo::*ooo>>>>>>>>>>",
">>>>>>>>>>>>>>>>oo***oo**::=:::==:::=:=:********o>>**>>>>oXX-.oo>>@@o>>>>>.-*o*::o;:oooo**o::*oo*o:*o**o>>>>>>>>>",
">>>>>>>>>>>>>>>>ooooo>o****:*::=:::::::*:**:*oo*o>>>**>.XXoX-.>>>@@o>>>>>.-*o*:::*****:::o*o:o>o*o*oo*=o>>>>>>>>>",
">>>>>>>>>>>>>>>>>>>>>>o*:*:::*::=::**:*::**::o.o>>>*::*oooXX@-.>>*oo>>>>.**o****::**:**::*o>oo>o:*o=*::*o>>>>>>>>",
">>>>>>>>>>>>>>>>>>>>>>o*:**::*::**:*:*::****:X.@.>>o**o>*>oX@-.>=:oo>>>.-@.oo**:::**::*****o>>oo:o::*:o*o>>>>>>>>",
">>>>>>>>>>>>>>>>>>>>>>>o***:::*:**:*:**:*o***.X@.>>>ooo>o**o@o**:*.o>>.-@.oo>o***:o**::*o*ooooooo:::o**oo>>>>>>>>",
">>>>>>>>>>>>>>>>>>>>>>>ooo**:*o**::**oo**oooo...@..>>o>>o=**:=:*=:*o>.-@.o>>>o*oo::o*:***o>>>>>o*:****o>>>>>>>>>>",
">>>>>>>>>>>>>>>>>>>>>>>>>o:***oo::*o*>>o*o>>o>>..@.>>>>o=:*:=;:****oo.@o.o>>>oo.o*o:o*o**o>>>>>o**oo*o>>>>>>>>>>>",
">>>>>>>>>>>>>>>>>>>>>>>>>o::*o>>o:*o:>>>o>>>>>>>..@.>>>o=*:===::*::o.@o.o>>>>>@.o*o:o*oooo>>>>>ooo>>o>>>>>>>>>>>>",
">>>>>>>>>>>>>>>>>>>>>>>>>>o:o>>>o*ooo.@@@@@@.>>>>.X@.>>o***:==;=::***o.o>>>>>@.>oo*oooXX>>>>>>>>>>>>>>>>>>>>>>>>>",
">>>>>>>>>>>>>>>>>>>>>>>>>>>oo>>>>o>>>o.***..*o.....X.>o*:::::;;====:*Xo>>>>>@.>>>o**ooooooo>>>>>>>>>>>>>>>>>>>>>>",
">>>>>>>>>>>>>>>>>>>>>>>>>>>>>>>>>>>>>oo*==*>*=oooXXX@oo**:=======:*:***>>>>>@.>>**::ooo*==oo>>>>>>>>>>>>>>>>>>>>>",
">>>>>>>>>>>>>>>>>>>>>>>>>>>>>>>>>>>>>o>:*==*::*o>oo.@.*:=====;;=::*::*oo>>>>&.>..**:=;;==o*>>>>>>>>>>>>>>>>>>>>>>",
">>>>>>>>>>>>>>>>>>>>>>>>>>>>>>>>>>>>ooo:o::*:o*o>>>oX@.ooo*:;;;:**:*ooo>>>>&@@X.o*:=;;===oo>>>>>>>>>>>>>>>>>>>>>>",
">>>>>>>>>>>>>>>>>>>>>>>>>>>>>>>>>>>>o>>o:::o*ooo>>>>oX.*o*::*;:******o*o>>-@...o*:=====;:==o>>>>>>>>>>>>>>>>>>>>>",
">>>>>>>>>>>>>>>>>>>>>>>>>>>>>>>>>>>>>>o*:**ooo>>>>>>oX*o*::o******:oo*oo@-..oo****:==;;=:oo*o>>>>>>>>>>>>>>>>>>>>",
">>>>>>>>>>>>>>>>>>>>>>>>>>>>>>>>>>>>>>o**oooo>>>>>>>o*o***o::**:*o*ooo....Xo>>oo::::;;::o*o**o>>>>>>>>>>>>>>>>>>>",
">>>>>>>>>>>>>>>>>>>>>>>>>>>>>>>>>>>>>>ooo>>o>>>>>>>>>.oo*oo:***:o*o**oo.Xoo>>>o***o==**:*:**oo>>>>>>>>>>>>>>>>>>>",
">>>>>>>>>>>>>>>>>>>>>>>>>>>>>>>>>>>>>>>>>>>>>>>>>>>>>>o.oo*o*o**o**o*oooo>>>>>>*oo***oo**o*o>>>>>>>>>>>>>>>>>>>>>",
">>>>>>>>>>>>>>>>>>>>>>>>>>>>>>>>>>>>>>>>>>>>>>>>>>>>>>>>o*oo*:o*o*ooooo>>>>>>>>o>o**:ooo*ooo>>>>>>>>>>>>>>>>>>>>>",
">>>>>>>>>>>>>>>>>>>>>>>>>>>>>>>>>>>>>>>>>>>>>>>>>>>>>>>>oo.o*o*o*o*oo>>>>>>>>>>>>o*o*:o>oo>>>>>>>>>>>>>>>>>>>>>>>",
">>>>>>>>>>>>>>>>>>>>>>>>>>>>>>>>>>>>>>>>>>>>>>>>>>>>>>>>>..o*o*o*oooo>>>>>>>>>>>>o*oo*o>o>>>>>>>>>>>>>>>>>>>>>>>>",
">>>>>>>>>>>>>>>>>>>>>>>>>>>>>>>>>>>>>>>>>>>>>>>>>>>>>>>>>..oo*.Xo>>>>>>>>>>>>>>>>>o*:*o>>>>>>>>>>>>>>>>>>>>>>>>>>",
">>>>>>>>>>>>>>>>>>>>>>>>>>>>>>>>>>>>>>>>>>>>>>>>>>>>>>>>>>..oo.Xo>>>>>>>>>>>>>>>>>oooooo>>>>>>>>>>>>>>>>>>>>>>>>>",
">>>>>>>>>>>>>>>>>>>>>>>>>>>>>>>>>>>>>>>>>>>>>>>>>>>>>>>>>>.@o.-Xo>>>>>>>>>>>>>>>>>>>>>>o>>>>>>>>>>>>>>>>>>>>>>>>>",
">>>>>>>>>>>>>>>>>>>>>>>>>>>>>>>>>>>>>>>>>>>>>>>>>>>>>>>>>>.@Xo@-Xo>>>>>>>>>>>>>>>>>>>>>>>>>>>>>>>>>>>>>>>>>>>>>>>",
">>>>>>>>>>>>>>>>>>>>>>>>>>>>>>>>>>>>>>>>>>>>>>>>>>>>>>>>>>..@X@-Xo>>>>>>>>>>>>>>>>>>>>>>>>>>>>>>>>>>>>>>>>>>>>>>>",
">>>>>>>>>>>>>>>>>>>>>>>>>>>>>>>>>>>>>>>>>>>>>>>>>>>>>>>>>>..@X@-Xo>>>>>>>>>>>>>>>>>>>>>>>>>>>>>>>>>>>>>>>>>>>>>>>",
">>>>>>>>>>>>>>>>>>>>>>>>>>>>>>>>>>>>>>>>>>>>>>>>>>>>>>>>>>o.@@.Xo>>>>>>>>>>>>>>>>>>>>>>>>>>>>>>>>>>>>>>>>>>>>>>>>",
">>>>>>>>>>>>>>>>>>>>>>>>>>>>>>>>>>>>>>>>>>>>>>>>>>>>>>>>>o..-@X@o>>>>>>>>>>>>>>>>>>>>>>>>>>>>>>>>>>>>>>>>>>>>>>>>",
">>>>>>>>>>>>>>>>>>>>>>>>>>>>>>>>>>>>>>>>>>>>>>>>>>>>>>>>o..-@oXo>>>>>>>>>>>>>>>>>>>>>>>>>>>>>>>>>>>>>>>>>>>>>>>>>",
">>>>>>>>>>>>>>>>>>>>>>>>>>>>>>>>>>>>>>>>>>>>>>>>>>>>>>>o..-@oX@o>>>>>>>>>>>>>>>>>>>>>>>>>>>>>>>>>>>>>>>>>>>>>>>>>",
">>>>>>>>>>>>>>>>>>>>>>>>>>>>>>>>>>>>>>>>>>>>>>>>>>>>>>o..%-@oXo>>>>>>>>>>>>>>>>>>>>>>>>>>>>>>>>>>>>>>>>>>>>>>>>>>",
">>>>>>>>>>>>>>>>>>>>>>>>>>>>>>>>>>>>>>>>>>>>>>>>>>>>>>..%-@o.@o>>>>>>>>>>>>>>>>>>>>>>>>>>>>>>>>>>>>>>>>>>>>>>>>>>",
">>>>>>>>>>>>>>>>>>>>>>>>>>>>>>>>>>>>>>>>>>>>>>>>>>>>>>o.%-@..o>>>>>>>>>>>>>>>>>>>>>>>>>>>>>>>>>>>>>>>>>>>>>>>>>>>",
">>>>>>>>>>>>>>>>>>>>>>>>>>>>>>>>>>>>>>>>>>>>>>>>>>>>>>o.-@@@.o>>>>>>>>>>>>>>>>>>>>>>>>>>>>>>>>>>>>>>>>>>>>>>>>>>>",
">>>>>>>>>>>>>>>>>>>>>>>>>>>>>>>>>>>>>>>>>>>>>>>>>>>>>>o.-@X..@@>>>>>>>>>>>>>>>>>>>>>>>>>>>>>>>>>>>>>>>>>>>>>>>>>>",
">>>>>>>>>>>>>>>>>>>>>>>>>>>>>>>>>>>>>>>>>>>>>>>>>>>>>>>o@@XX.@@oooo>>>>>>>>>>>>>>>>>>>>>>>>>>>>>>>>>>>>>>>>>>>>>>",
">>>>>>>>>>>>>>>>>>>>>>>>>>>>>>>>>>>>>>>>>>>>>>>>>>>>>>>oooo...--@@@oo>>>>>>>>>>>>>>>>>>>>>>>>>>>>>>>>>>>>>>>>>>>>",
">>>>>>>>>>>>>>>>>>>>>>>>>>>>>>>>>>>>>>>>>>>>>>>>>>>>>>>>o.X..@@---%%@oo>>>>>>>>>>>>>>>>>>>>>>>>>>>>>>>>>>>>>>>>>>",
">>>>>>>>>>>>>>>>>>>>>>>>>>>>>>>>>>>>>>>>>>>>>>>>>>>>>>>>>o.X@o@XX@--%@@oo>>>>>>>>>>>>>>>>>>>>>>>>>>>>>>>>>>>>>>>>",
">>>>>>>>>>>>>>>>>>>>>>>>>>>>>>>>>>>>>>>>>>>>>>>>>>>>>>>>>>o.X@o@@X@%-%X@ o>>>>>>>>>>>>>>>>>>>>>>>>>>>>>>>>>>>>>>>",
">>>>>>>>>>>>>>>>>>>>>>>>>>>>>>>>>>>>>>>>>>>>>>>>>>>>>>>>>>>ooX@@X@X@%--o@ o>>>>>>>>>>>>>>>>>>>>>>>>>>>>>>>>>>>>>>",
">>>>>>>>>>>>>>>>>>>>>>>>>>>>>>>>>>>>>>>>>>>>>>>>>>>>>>>>>>>>>oX@XX@X@%--o@ o>>>>>>>>>>>>>>>>>>>>>>>>>>>>>>>>>>>>>",
">>>>>>>>>>>>>>>>>>>>>>>>>>>>>>>>>>>>>>>>>>>>>>>>>>>>>>>>>>oooooX@oX@X@%-%o# o>>>>>>>>>>>>>>>>>>>>>>>>>>>>>>>>>>>>",
">>>>>>>>>>>>>>>>>>>>>>>>>>>>>>>>>>>>>>>>>>>>>>>>>>>>>>>>>o-%@@@@@@oX@X@#-Xo$ o>>>>>>>>>>>>>>>>>>>>>>>>>>>>>>>>>>>",
">>>>>>>>>>>>>>>>>>>>>>>>>>>>>>>>>>>>>>>>>>>>>>>>>>>>>>>>o-%X@X.@X@XoX@X@X%X@$$o>>>>>>>>>>>>>>>>>>>>>>>>>>>>>>>>>>",
">>>>>>>>>>>>>>>>>>>>>>>>>>>>>>>>>>>>>>>>>>>>>>>>>>>>>>>o-%XoooX@%X@Xo-XXXoXX@@$o>>>>>>>>>>>>>>>>>>>>>>>>>>>>>>>>>",
">>>>>>>>>>>>>>>>>>>>>>>>>>>>>>>>>>>>>>>>>>>>>>>>>>>>>>oXooo>>@-%XooXXo-%o>oX%%@@ooo>>>>>>>>>>>>>>>>>>>>>>>>>>>>>>",
">>>>>>>>>>>>>>>>>>>>>>>>>>>>>>>>>>>>>>>>>>>>>>>>>>>>>ooo>>>>o-%Xo>>oXoX-%>>ooX%XXXXo>>>>>>>>>>>>>>>>>>>>>>>>>>>>>",
">>>>>>>>>>>>>>>>>>>>>>>>>>>>>>>>>>>>>>>>>>>>>>>>>>>>>>>>>>>o-%Xo>>>>ooooo>>>ooooooo>>>>>>>>>>>>>>>>>>>>>>>>>>>>>>",
">>>>>>>>>>>>>>>>>>>>>>>>>>>>>>>>>>>>>>>>>>>>>>>>>>>>>>>>>>>oXXo>>>>>>>>>>>>>>>>>>>>>>>>>>>>>>>>>>>>>>>>>>>>>>>>>>",
">>>>>>>>>>>>>>>>>>>>>>>>>>>>>>>>>>>>>>>>>>>>>>>>>>>>>>>>>>>ooo>>>>>>>>>>>>>>>>>>>>>>>>>>>>>>>>>>>>>>>>>>>>>>>>>>>"
};
