/* XPM */
static char *_1149_bd77cf6f5c5ab9087220e68352cf4daeac33b9184cec19ed16ae27f337eb9443[] = {
/* columns rows colors chars-per-pixel */
"113 113 18 1 ",
"  c #2B1C1D",
". c #2B230F",
"X c #3A2912",
"o c #101820",
"O c #462B11",
"+ c #442E19",
"@ c #56381D",
"# c #58381C",
"$ c #49342C",
"% c #63462B",
"& c #744B30",
"* c #7E6952",
"= c #A13560",
"- c #DD6D7F",
"; c #EFA5B1",
": c #E9B7CB",
"> c #F3CBD2",
", c None",
/* pixels */
",,,,,,,,,,,,,,,,,,,,,,,,,,,,,,,,,,,,,,,,,,,,,,,,,,,,,,,,,,,,,,,,,,,,,,,,,,,,--,,,,,,,,,,,,,,,,,,,,,,,,,,,,,,,,,,,",
",,,,,,,,,,,,,,,,,,,,,,,,,,,,,,,,,,,,,,,,,,,,,,,,,,,,,,,,,,,,,,,,,,,-,,,,,,,;:-,,,,,,,,,,,,,,,,,,,,,,,,,,,,,,,,,,,",
",,,,,,,,,,,,,,,,,,,,,,,,,,,,,,,,,,,,,,,,,,,,,,,,,,,,,,,,,,,,,,,,,,,---:,---:-,,,,,,,,,,,,,,,,,,,,,,,,,,,,,,,,,,,,",
",,,,,,,,,,,,,,,,,,,,,,,,,,,,,,,,,,,,,,,,,,,,,,,,,,,,,,,,,,,,,,,,,,,-;--:;:-;:--,,,,,,,,,,,,,,,,,,,,,,,,,,,,,,,,,,",
",,,,,,,,,,,,,,,,,,,,,,,,,,,,,,,,,,,,,,,,,,,,,,,,,,,,,,,,,,,,,,,,,,,;:-:;>:------,,,,,,,,,,,,,,,,,,,,,,,,,,,,,,,,,",
",,,,,,,,,,,,,,,,,,,,,,,,,,,,,,,,,,,,,,,,,,,,,,,,,,,,,,,,,,,,,,,,,,,;-:;;;::-::-,,,,,,,,,,,,,,,,,,,,,,,,,,,,,,,,,,",
",,,,,,,,,,,,,,,,,,,,,,,,,,,,,,,,,,,,,,,,,,,--:,,,:--,,,,,,,,,,,,,,----:;;>;::---,,,,,,,,,,,,,,,,,,,,,,,,,,,,,,,,,",
",,,,,,,,,,,,,,,,,,,,,,,,,,,,,,,,,,,,,,,,,--::::--;;--,,,,,,,,,&&,,-:::::>>;;;;:-,,,,,,,,,,,,,,,,,,,,,,,,,,,,,,,,,",
",,,,,,,,,,,,,,,,,,,,,,,,,,,,,,,,,,,,,,,,,,--:;>;;;--,,,,--,,,--X----:;;;;;;;:-::::,,,,,,,,,,,,,,,,,,,,,,,,,,,,,,,",
",,,,,,,,,,,,,,,,,,,,,,,,,,,,,,,,,,,,,,,,,,-:;>>;;;;-,,,-;;---;;-X-:;;;;;>>;:::::--=,,,,,,,,,,,,,,,,,,,,,,,,,,,,,,",
",,,,,,,,,,,,,,,,,,,,,,,,,,,,,,,,,,,,,,,,,-:;;;;;>:;;-,---;;;;:;;;-===-:>>>:-::-:===,,,,,,,,,,,,,,,,,,,,,,,,,,,,,,",
",,,,,,,,,,,,,,,,,,,,,,,,,,,,,,,,,,,,,,,----:;;>>;:==,,-;;-;>;;;;;:-=-::->:---:----=,,,,,,,,,,,,,,,,,,,,,,,,,,,,,,",
",,,,,,,,,,,,,,,,,,,,,,,,,,,,,,,,,,,,,,,-:::::>>:::-=---;>;>>;;>;;-=-:::-----:::===:,,,:--,,,,,,,,,,,,,,,,,,,,,,,,",
",,,,,,,,,,,,,,,,,,,,,,,,,,,,,,,,,,,,,,,----=;;--:::-=:-;;;>>;;>--=----::--:--:-=::=:--;;--,,,,,,,,,,,,,,,,,,,,,,,",
",,,,,,,,,,,,,,,,,,,,,,,,,,,,,,,,,,,,,,,--==----=-:=-=:;>;>>>;>>>>==--:::--::--===:;>;;;--,,,,,,,,,,,,,,,,,,,,,,,,",
",,,,,,,,,,,,,,,,,,,,,,,,,,,,,,,,,,,,,,===,=--::==-===;>>>>>>>>>>>=.=---:=--::-=-:=>>;;;;-,,,,,,,,,,,,,,,,,,,,,,,,",
",,,,,,,,,,,,,,,,,,,,,,,,,,,,,,,,,,,,,,,,,,=-=-:=X==&&;;>>>>>>>>>>.@=-==::=-:====;;;;;>:;;-,,,,,,,,,,,,,,,,,,,,,,,",
",,,,,,,,,,,,,,,,,,,,,,,,,,,,,,,,,,,,,,,,,,=-====-=-.:;>>>>>>>>>>.@>==:=-=:===--=:;;>>;:==,,,,,,,,,,,,,,,,,,,,,,,,",
",,,,,,,,,,,,,,,,,,,,,,,,,,,,,,,,,,,,,,,,,,,=-:=--:..:>>>>>>>>>>>.@>>>;=-=:=--=::::>>:::-=---,,,,,,,,,,,,,,,,,,,,,",
",,,,,,,,,,,,,,,,,,,,,,,,-,,--,,,----,,,,,,,===-=--.X;;;>>>>>>>>.X@X@>>==--X=----=;;--:::-=:-,,,,,,,,,,,,,,,,,,,,,",
",,,,,,,,,,,,,,,,,,,,,,,,;--;;---;;-,,-,,,,,,=-..=:.;;;>>>>>>>>>.X@>XX@;==XXX--==----=-:=-=,,,,,,,,,,,,,,,,,,,,,,,",
",,,,,,,,,,,,,,,,,,,,,,--;;::;;:;;;---;,,,,,=-=-..:.:;>>;@@>>>>>>X@>>>X@@XX;===,=--::==-===,,,,,,,,,,,,,,,,,,,,,,,",
",,,,,,,,,,,,,,,-,,,--,-;;;;:;;;;;::;:::-::------.@.:>>>;>X@>;;>>>>;;;>XX&:--,,,=-=-:=,==,,,,,,,,,,,,,,,,,,,,,,,,,",
",,,,,,,,,,,,,,,-----;---;;;;:;;;::;;:;;::---===::.X->>>;>>X@&>;;>>>;;;;XX&::-,,=-====,=,,,,,,,,,,,,,,,,,,,,,,,,,,",
",,,,,,,,,,,,,---:;;-:;;:;;>;;;;;;;;;;;;;;;::-=-::..X;;>>>>>X&>X>>>>;;>;;XX:--,,,=-:=-,,,,,,,,,,,,,,,,,,,,,,,,,,,,",
",,,,,,,,,,,,,;;;-:;::;;>>;>;;>;;;>>;;>;;;;;::----:.X;;>>>;XXXX>>;;;==;==XXX==,,,===-=,,,,,,,,,,,,,,,,,,,,,,,,,,,,",
",,,,,,,,,,,,,-;;;:;;:;;;>>>;;>>;>>>;>>;;::::-==-:::X@.>>;X>>>;>>;;>>;=:==XX--,,,XXX,,=,,,,,,,,,,,,,,,,,,,,,,,,,,,",
",,,,,,,,,,,--::;;;;;;;>;;>>;>>>>>>>>>>;;;;:::---:-:X@.>;XX>;>>;;;>->-=:-==;:-X,,---,,--,,,,,,,,,,,,,,,,,,,,,,,,,,",
",,,,,,,,,--::;;;>>;;>;>;>>>;>;;>>;>>>>>>>>;;;;;;----X@>;;;;;;;>;=:-===:---:-XXX--;;-,-;=,,,,,,,,,,,,,,,,,,,,,,,,,",
",,,,,,,,,,--::;;>>>>>;>>>>>>>>;>>>>>>>;;;>>;;::--:--X@==>;>>;;>>-=-;--=;:-;:--X,:-;;-::-=,,,,,,,,,,,,,,,,,,,,,,,,",
",,,,,,,,,,-:;::;;>>>;>>>>>>>>>>>>>>>;>;;;;>;:----:--XX@===>>>>>=-=;:-:=>:------=:=::-:=---,,,----,,,,,,,,,,,,,,,,",
",,,,,,,,,-:;;;>;;;>>>>;;;>>>>>>>>>>>>>;;>;>>;;::-:::-X@;>:-:;:::=;;-:;;;::-::-XX=:::=-=-;;---;;-,,------,,,,,,,,,",
",,,,,,,----:;>>>>;>>>;;;>>>>>>>>>>>>>;;>>>>>;::---::-X@.---::--:=----:;;>;::---=-:--==---;;;;:;;;-;;;---,,,,,,,,,",
",,,,,,,-:::::>>>>>>>>>>>>>>>>>>>>>>>>;;;;>;>;::;;----XX.-;;---;=:-:::::>>;;;;:-=--====-;;-;>;;;;;:;>-:--,,,,,,,,,",
",,,,,----:;;;;;>>;>>>>>>>>>>>>>>>>>>>>>>;>>>;;;;:--;-.X.:-;;-::-=--:;;;;;;;:-::::=OO--:;>;>>;;>;;;>>;;::-,,,,,,,,",
",,,,,,-:;;;::;>>>>>;;;>>>>>>>>>>>>>>>>>>>>>>;;;;:;;:-.==:=::-:=-=:;;;;;>>;:::::--=--:::;;;>>;;>>;>>::;;-,,,,,,,,,",
",,,,,,-:;;:;;;;>>>;;;>>>>>>>>>>>>>>>>>>>>;;>>;;;;;:--=oo=:::=-======-:>>>:-::-:==XX--:;>;>>>;>>>>>;>:::--,,,,,,,,",
",,,,,-:;;;;;;;;;;>>>>>>>>>>>>>>>>>>>>>>>>>;;;;;;;::::-o=-:--====--=-::->:---:----=X-:;>>>>>>>>>>>;;>::::-,,,,,,,,",
",,,,,---;:;;;;;>>>>;>>>>>>>>>>>>>>>>>>>>>>>;>>>;;;;:-Xo=--====-=-=-:::-----:::=-=OO:;;;>>>>>>>>>>>>:::;:--,,,,,,,",
",,,,-;;;;;;>>;>>;>;;>>>>>>>>>>>>>>>>>>>;;>>>;>>>;;;:-.o====:=---=----::--:--::-=O===:;>>>>>>>>>>>>>>;:;:::-,,,,,,",
",,,,--:;;;;>>;;;;>>;;>>>>>>>>>>>>>>>>>>;;;>>>;;;;;;;:-o,,,,,:=,,==--:::--::----O+::=:>>>>>>>>>>>>>>>>;;::;:-,,,,,",
",,,-::;;:;>>;;;>;>>>;>>>>>>>>>>>>>>>>>>>;;>>>;;;;;;---=,,,,,,=,,=,=---:=--::-=+++-:;;;;>>>>>>>>>>;;;>>;;;--,,,,,,",
",,,-:-;::;:;:;>>>>;;;>>;>>>>>>>>>>>>>>;>;;;;;;::;::;:==,,,-,,,,,,,=-==::=-:-=-+X==;;;;>>>>>>>>>>>>>>>;;;;;--,,,,,",
",,,--::::;::;;>;>>>>>>;;>;>>>>>>>>>>>>>>>>;;;;;:;;:--.X,,,---:,---==,=-=:=-=-+X=-:=:;>>;>>>>>>>>>>>>>>;;::;:-,,,,",
",,,,-:;;:;;;;;;;;>>>>>>;;;>>>>>>>>>>>>>;;;;:::;::;:::-X.,,-;--:;:-;:-=-=:==-+X=-::::>>>;>;>>;;>>>>;;;>>;;:--,,,,,",
",,,-:;;::::;;;:;;>>;>>>;;>>;>>>>>>>>;>>;>;;;::::::::-=.X,,;:-:;>:----==-,,==+X=::::->>>;>>>>>>;;>>>;;;;;;:::-,,,,",
",,--::::::;;;::;>>>>>>>>>>>;;;>>>;;>;>>;>;:::;::::--=.XX,,;-:;;;::-::-==,,,,,=-:::-;;;>>>>>>>>>>>>>;;>;;:::--,,,,",
",,,,---:;;;;;:;;>;>>;>>;>>>>;>>>>>;;;>>;;;::;;;;:::--=XX.----:;;>;::---,@@@,=----:::;;>>>;>>>>>>;;;;;;->:--==,,,,",
",,,=:=:;;:::;;;;;;>;;>:;;>>>>>>>>>>;;>>>;;;:;;;:::::--=..-:::::>>;;;;:-..XX.===-::::->>>;;>>>;>>;;>>;>:::---,,,,,",
",,,,,,=-:::;;;;;;>;;;;:;:::>>>>>>>>>>>>;;;;;;;::--::==X----:;;;;;;;:-::::XX..=-::-:-->>;;;>;>>;;;>>>-::-:==-,,,,,",
",,,,,=-:::;;;;;;>>>>>::::::;>>>>;>>>>>;;;::;;::--:::-=X.-:;;;;;>>;:::::--=oo=-:::--->>>;;;;;;;>;>:>---:----=,,,,,",
",,,,=----::::;;;>>;;:;:::::;:>>>;;>:;;;;>;:::::--:::--=X.===-:>>>:-::-:==,,=----::--:;>;>;>>;;>>-:---:::=-==,,,,,",
",,,,==--:::-;;;;;;;::;:::::::;;:;;:::;::::;;;::---:::-=X.-=-::->:---:----=,==--:::-->;;>>>>>>>>>---:--::-=,,,,,,,",
",,,,=,=---:::;;;;;;:;;:;::::;;;;;;;:::::;::;;:::-=-:===.-=-:::-----:::=-==,=,=---:::-:;;>:-:;:::;;-::-----=,,,,,,",
",,,,,,=-==::::--:;;:;;;;:::;;;;;;;;;::::;;::::-::==-=,--=----::--:--::-=,,,,,=-==:::------:::-::;:--::-=-==,,,,,,",
",,,,,,==,=-=-:---:;::;;::;:;;:;;;:;;:::;;::;::--:=,==,,.==--:::--::-----=XXX,==:=--:::-::--:--::::=-:---=,,,,,,,,",
",,,,,,,,,=-=:---::;:::;:;;:;:::;;::::::;;;::;:-===X=,,,,=.=---:=--::-=-==ooX==--=:::::::::---:::::-:-=--=,,,,,,,,",
",,,,,,,,,==---==-:::;:::;;:::::;::;::::;:;;:;---=X,,,,,,.X=-==::=-:---=,,,,o-:::=:::-::--:--::-::--:-====,,,,,,,,",
",,,,,,,,,,====,==::::::::;::::::::;;:::;::;::-::-=,,,,,,,X==.=-=:=-=--=,,,==--:;;=::-=::----:::-:--:=,,,,,,,,,,,,",
",,,,,,,,,,,,,,,==-=-:---::::;::::::;;:;;-::-:--::-=,,,,,,XX*.=-=:=-====,,,,-:;;;;--:-=:--==--:-=--::=,,,,,,,,,,,,",
",,,,,,,,,,,,,,,==-=:---=:-:;;::;:::;;;;:--:-:--===,,,,,,,oX*.==-,,=@o,,,,,,.===-:-===---=:=:---==::-===,,,,,,,,,,",
",,,,,,,,,,,,,,,,==---==--::;:::;;:::;:;:--------=,,--,,,,oXX*.==,,@@o,,,,,.*-=-::=>:====--=::-==-=:-=--=,,,,,,,,,",
",,,,,,,,,,,,,,,,=====,=----:-::;:::::::-:--:-==-=,,,--,.XXoX*.,,,@@o,,,,,.*-=-:::-----:::=-=:=,=-=-==-;=,,,,,,,,,",
",,,,,,,,,,,,,,,,,,,,,,=-:-:::-::;::--:-::--::=.=,,,-::-oooXX@*.,,-=o,,,,.--=----::--:--::-=,==,=:-=;-::-=,,,,,,,,",
",,,,,,,,,,,,,,,,,,,,,,=-:--::-::--:-:-::----:X.@.,,=--=,-,oX@*.,;:=o,,,.*@.==--:::--::-----=,,==:=::-:=-=,,,,,,,,",
",,,,,,,,,,,,,,,,,,,,,,,=---:::-:--:-:--:-=---.X@.,,,===,=--=@=--:-.o,,.*@.o=,=---:=--::-=-==o=oo=:::=--==,,,,,,,,",
",,,,,,,,,,,,,,,,,,,,,,,===--:-=--::--==--====...@..,,=,,=;--:;:-;:-=,.*@.o,,,=-==::=-:---=,,,,,=-:----=,,,,,,,,,,",
",,,,,,,,,,,,,,,,,,,,,,,,,=:---==::-=-,,=-=,,=,,..@.,,,,=;:-:;>:----==.@o.o,,,==.=-=:=-=--=,,,,,=--==-=,,,,,,,,,,,",
",,,,,,,,,,,,,,,,,,,,,,,,,=::-=,,=:-=:,,,=,,,,,,,..@.,,,=;-:;;;::-::=.@o.o,,,,,@.=-=:=-====,,,,,===,,=,,,,,,,,,,,,",
",,,,,,,,,,,,,,,,,,,,,,,,,,=:=,,,=-===.@@@@@@.,,,,.X@.,,=---:;;>;::--=o.o,,,,,@.,==-===XX,,,,,,,,,,,,,,,,,,,,,,,,,",
",,,,,,,,,,,,,,,,,,,,,,,,,,,==,,,,=,,,o.---..-=.....X.,=-:::::>>;;;;:=Xo,,,,,@.,,,=--=ooo===,,,,,,,,,,,,,,,,,,,,,,",
",,,,,,,,,,,,,,,,,,,,,,,,,,,,,,,,,,,,,==-;;-,-;=ooXXX@==--:;;;;;;;:-:===,,,,,@.,,--::===-;;==,,,,,,,,,,,,,,,,,,,,,",
",,,,,,,,,,,,,,,,,,,,,,,,,,,,,,,,,,,,,=,:-;;-::-=,oo.@.-:;;;;;>>;::-::-==,,,,&.,..--:;>>;;=-,,,,,,,,,,,,,,,,,,,,,,",
",,,,,,,,,,,,,,,,,,,,,,,,,,,,,,,,,,,,===:=::-:=-=,,,oX@.===-:>>>:--:-===,,,,&@@X.o-:;>>;;;==,,,,,,,,,,,,,,,,,,,,,,",
",,,,,,,,,,,,,,,,,,,,,,,,,,,,,,,,,,,,=,,=:::=-===,,,,oX.-=-::->:------=-=,,*@...o-:;;;;;>:;;=,,,,,,,,,,,,,,,,,,,,,",
",,,,,,,,,,,,,,,,,,,,,,,,,,,,,,,,,,,,,,=-:--===,,,,,,oX-=-::=------:==-==@*..oo----:;;>>;:==-=,,,,,,,,,,,,,,,,,,,,",
",,,,,,,,,,,,,,,,,,,,,,,,,,,,,,,,,,,,,,=--====,,,,,,,=-=---=::--:-=-===....Xo,,==::::>>::=-=--=,,,,,,,,,,,,,,,,,,,",
",,,,,,,,,,,,,,,,,,,,,,,,,,,,,,,,,,,,,,===,,=,,,,,,,,,.==-==:---:=-=--==.Xoo,,,=---=;;--:-:--==,,,,,,,,,,,,,,,,,,,",
",,,,,,,,,,,,,,,,,,,,,,,,,,,,,,,,,,,,,,,,,,,,,,,,,,,,,,=.==-=-=--=--=-==oo,,,,,,-==---==--=-=,,,,,,,,,,,,,,,,,,,,,",
",,,,,,,,,,,,,,,,,,,,,,,,,,,,,,,,,,,,,,,,,,,,,,,,,,,,,,,,=-==-:=-=-===oo,,,,,,,,=,=--:===-===,,,,,,,,,,,,,,,,,,,,,",
",,,,,,,,,,,,,,,,,,,,,,,,,,,,,,,,,,,,,,,,,,,,,,,,,,,,,,,,==X=-=-=-=-==,,,,,,,,,,,,=-=-:=,==,,,,,,,,,,,,,,,,,,,,,,,",
",,,,,,,,,,,,,,,,,,,,,,,,,,,,,,,,,,,,,,,,,,,,,,,,,,,,,,,,..X=-=-=-====,,,,,,,,,,,,=-==-=,=,,,,,,,,,,,,,,,,,,,,,,,,",
",,,,,,,,,,,,,,,,,,,,,,,,,,,,,,,,,,,,,,,,,,,,,,,,,,,,,,,,,XX==-.X=,,,,,,,,,,,,,,,,,=-:-=,,,,,,,,,,,,,,,,,,,,,,,,,,",
",,,,,,,,,,,,,,,,,,,,,,,,,,,,,,,,,,,,,,,,,,,,,,,,,,,,,,,,,.X.==.Xo,,,,,,,,,,,,,,,,,======,,,,,,,,,,,,,,,,,,,,,,,,,",
",,,,,,,,,,,,,,,,,,,,,,,,,,,,,,,,,,,,,,,,,,,,,,,,,,,,,,,,,,X@o.*Xo,,,,,,,,,,,,,,,,,,,,,,=,,,,,,,,,,,,,,,,,,,,,,,,,",
",,,,,,,,,,,,,,,,,,,,,,,,,,,,,,,,,,,,,,,,,,,,,,,,,,,,,,,,,,X@Xo@*Xo,,,,,,,,,,,,,,,,,,,,,,,,,,,,,,,,,,,,,,,,,,,,,,,",
",,,,,,,,,,,,,,,,,,,,,,,,,,,,,,,,,,,,,,,,,,,,,,,,,,,,,,,,,,.X@X@*Xo,,,,,,,,,,,,,,,,,,,,,,,,,,,,,,,,,,,,,,,,,,,,,,,",
",,,,,,,,,,,,,,,,,,,,,,,,,,,,,,,,,,,,,,,,,,,,,,,,,,,,,,,,,,.@@X@*Xo,,,,,,,,,,,,,,,,,,,,,,,,,,,,,,,,,,,,,,,,,,,,,,,",
",,,,,,,,,,,,,,,,,,,,,,,,,,,,,,,,,,,,,,,,,,,,,,,,,,,,,,,,,,.X@@.Xo,,,,,,,,,,,,,,,,,,,,,,,,,,,,,,,,,,,,,,,,,,,,,,,,",
",,,,,,,,,,,,,,,,,,,,,,,,,,,,,,,,,,,,,,,,,,,,,,,,,,,,,,,,,oX@*@X@o,,,,,,,,,,,,,,,,,,,,,,,,,,,,,,,,,,,,,,,,,,,,,,,,",
",,,,,,,,,,,,,,,,,,,,,,,,,,,,,,,,,,,,,,,,,,,,,,,,,,,,,,,,o.@*@oXo,,,,,,,,,,,,,,,,,,,,,,,,,,,,,,,,,,,,,,,,,,,,,,,,,",
",,,,,,,,,,,,,,,,,,,,,,,,,,,,,,,,,,,,,,,,,,,,,,,,,,,,,,,oX.*@oX@o,,,,,,,,,,,,,,,,,,,,,,,,,,,,,,,,,,,,,,,,,,,,,,,,,",
",,,,,,,,,,,,,,,,,,,,,,,,,,,,,,,,,,,,,,,,,,,,,,,,,,,,,,o.X%*@oXo,,,,,,,,,,,,,,,,,,,,,,,,,,,,,,,,,,,,,,,,,,,,,,,,,,",
",,,,,,,,,,,,,,,,,,,,,,,,,,,,,,,,,,,,,,,,,,,,,,,,,,,,,,.X%*@o.@o,,,,,,,,,,,,,,,,,,,,,,,,,,,,,,,,,,,,,,,,,,,,,,,,,,",
",,,,,,,,,,,,,,,,,,,,,,,,,,,,,,,,,,,,,,,,,,,,,,,,,,,,,,o.%*@.Xo,,,,,,,,,,,,,,,,,,,,,,,,,,,,,,,,,,,,,,,,,,,,,,,,,,,",
",,,,,,,,,,,,,,,,,,,,,,,,,,,,,,,,,,,,,,,,,,,,,,,,,,,,,,o.*@@X.o,,,,,,,,,,,,,,,,,,,,,,,,,,,,,,,,,,,,,,,,,,,,,,,,,,,",
",,,,,,,,,,,,,,,,,,,,,,,,,,,,,,,,,,,,,,,,,,,,,,,,,,,,,,oX*@@X..,,,,,,,,,,,,,,,,,,,,,,,,,,,,,,,,,,,,,,,,,,,,,,,,,,,",
",,,,,,,,,,,,,,,,,,,,,,,,,,,,,,,,,,,,,,,,,,,,,,,,,,,,,,,o..@@X@.oooo,,,,,,,,,,,,,,,,,,,,,,,,,,,,,,,,,,,,,,,,,,,,,,",
",,,,,,,,,,,,,,,,,,,,,,,,,,,,,,,,,,,,,,,,,,,,,,,,,,,,,,,oooo*@X**@@@oo,,,,,,,,,,,,,,,,,,,,,,,,,,,,,,,,,,,,,,,,,,,,",
",,,,,,,,,,,,,,,,,,,,,,,,,,,,,,,,,,,,,,,,,,,,,,,,,,,,,,,,o.Xo@*.***%%@oo,,,,,,,,,,,,,,,,,,,,,,,,,,,,,,,,,,,,,,,,,,",
",,,,,,,,,,,,,,,,,,,,,,,,,,,,,,,,,,,,,,,,,,,,,,,,,,,,,,,,,o.X@o@XX@**%@@oo,,,,,,,,,,,,,,,,,,,,,,,,,,,,,,,,,,,,,,,,",
",,,,,,,,,,,,,,,,,,,,,,,,,,,,,,,,,,,,,,,,,,,,,,,,,,,,,,,,,,o.X@o@@X@%*%X@ o,,,,,,,,,,,,,,,,,,,,,,,,,,,,,,,,,,,,,,,",
",,,,,,,,,,,,,,,,,,,,,,,,,,,,,,,,,,,,,,,,,,,,,,,,,,,,,,,,,,,ooX@@X@X@%**o@ o,,,,,,,,,,,,,,,,,,,,,,,,,,,,,,,,,,,,,,",
",,,,,,,,,,,,,,,,,,,,,,,,,,,,,,,,,,,,,,,,,,,,,,,,,,,,,,,,,,,,,oX@XX@X@%**o@ o,,,,,,,,,,,,,,,,,,,,,,,,,,,,,,,,,,,,,",
",,,,,,,,,,,,,,,,,,,,,,,,,,,,,,,,,,,,,,,,,,,,,,,,,,,,,,,,,,oooooX@oX@X@%*%o# o,,,,,,,,,,,,,,,,,,,,,,,,,,,,,,,,,,,,",
",,,,,,,,,,,,,,,,,,,,,,,,,,,,,,,,,,,,,,,,,,,,,,,,,,,,,,,,,o*%@@@@@@oX@X@#*Xo$ o,,,,,,,,,,,,,,,,,,,,,,,,,,,,,,,,,,,",
",,,,,,,,,,,,,,,,,,,,,,,,,,,,,,,,,,,,,,,,,,,,,,,,,,,,,,,,o*%X@X.@X@XoX@X@X%X@$$o,,,,,,,,,,,,,,,,,,,,,,,,,,,,,,,,,,",
",,,,,,,,,,,,,,,,,,,,,,,,,,,,,,,,,,,,,,,,,,,,,,,,,,,,,,,o*%XoooX@%X@Xo*XXXoXX@@$o,,,,,,,,,,,,,,,,,,,,,,,,,,,,,,,,,",
",,,,,,,,,,,,,,,,,,,,,,,,,,,,,,,,,,,,,,,,,,,,,,,,,,,,,,oXooo,,@*%XooXXo*%o,oX%%@@ooo,,,,,,,,,,,,,,,,,,,,,,,,,,,,,,",
",,,,,,,,,,,,,,,,,,,,,,,,,,,,,,,,,,,,,,,,,,,,,,,,,,,,,ooo,,,,o*%Xo,,oXoX*%,,ooX%XXXXo,,,,,,,,,,,,,,,,,,,,,,,,,,,,,",
",,,,,,,,,,,,,,,,,,,,,,,,,,,,,,,,,,,,,,,,,,,,,,,,,,,,,,,,,,,o*%Xo,,,,ooooo,,,ooooooo,,,,,,,,,,,,,,,,,,,,,,,,,,,,,,",
",,,,,,,,,,,,,,,,,,,,,,,,,,,,,,,,,,,,,,,,,,,,,,,,,,,,,,,,,,,oXXo,,,,,,,,,,,,,,,,,,,,,,,,,,,,,,,,,,,,,,,,,,,,,,,,,,",
",,,,,,,,,,,,,,,,,,,,,,,,,,,,,,,,,,,,,,,,,,,,,,,,,,,,,,,,,,,ooo,,,,,,,,,,,,,,,,,,,,,,,,,,,,,,,,,,,,,,,,,,,,,,,,,,,"
};
